%TF.GenerationSoftware,KiCad,Pcbnew,10.0.1*%
%TF.CreationDate,2026-09-06T15:38:22+02:00*%
%TF.ProjectId,MatshitaPico,4d617473-6869-4746-9150-69636f2e6b69,rev.1*%
%TF.SameCoordinates,Original*%
%TF.FileFunction,Paste,Top*%
%TF.FilePolarity,Positive*%
%FSLAX46Y46*%
G04 Gerber Fmt 4.6, Leading zero omitted, Abs format (unit mm)*
G04 Created by KiCad (PCBNEW 10.0.1) date 2026-09-06 15:38:22*
%MOMM*%
%LPD*%
G01*
G04 APERTURE LIST*
G04 Aperture macros list*
%AMRoundRect*
0 Rectangle with rounded corners*
0 $1 Rounding radius*
0 $2 $3 $4 $5 $6 $7 $8 $9 X,Y pos of 4 corners*
0 Add a 4 corners polygon primitive as box body*
4,1,4,$2,$3,$4,$5,$6,$7,$8,$9,$2,$3,0*
0 Add four circle primitives for the rounded corners*
1,1,$1+$1,$2,$3*
1,1,$1+$1,$4,$5*
1,1,$1+$1,$6,$7*
1,1,$1+$1,$8,$9*
0 Add four rect primitives between the rounded corners*
20,1,$1+$1,$2,$3,$4,$5,0*
20,1,$1+$1,$4,$5,$6,$7,0*
20,1,$1+$1,$6,$7,$8,$9,0*
20,1,$1+$1,$8,$9,$2,$3,0*%
G04 Aperture macros list end*
%ADD10RoundRect,0.250000X0.400000X0.625000X-0.400000X0.625000X-0.400000X-0.625000X0.400000X-0.625000X0*%
%ADD11RoundRect,0.250000X-0.400000X-0.625000X0.400000X-0.625000X0.400000X0.625000X-0.400000X0.625000X0*%
%ADD12RoundRect,0.250000X0.412500X0.650000X-0.412500X0.650000X-0.412500X-0.650000X0.412500X-0.650000X0*%
%ADD13RoundRect,0.250000X-0.650000X0.412500X-0.650000X-0.412500X0.650000X-0.412500X0.650000X0.412500X0*%
%ADD14RoundRect,0.150000X-0.875000X-0.150000X0.875000X-0.150000X0.875000X0.150000X-0.875000X0.150000X0*%
%ADD15R,1.500000X1.000000*%
%ADD16R,2.200000X1.200000*%
%ADD17RoundRect,0.250000X0.650000X-0.412500X0.650000X0.412500X-0.650000X0.412500X-0.650000X-0.412500X0*%
%ADD18R,1.240000X1.120000*%
%ADD19RoundRect,0.250000X-0.412500X-0.650000X0.412500X-0.650000X0.412500X0.650000X-0.412500X0.650000X0*%
%ADD20R,1.475000X0.300000*%
G04 APERTURE END LIST*
D10*
%TO.C,R23*%
X238975000Y-71350000D03*
X235875000Y-71350000D03*
%TD*%
D11*
%TO.C,R22*%
X171083853Y-111481057D03*
X174183853Y-111481057D03*
%TD*%
D12*
%TO.C,C18*%
X225337500Y-81125000D03*
X222212500Y-81125000D03*
%TD*%
D11*
%TO.C,R8*%
X86750000Y-90190000D03*
X89850000Y-90190000D03*
%TD*%
%TO.C,R10*%
X86750000Y-82675000D03*
X89850000Y-82675000D03*
%TD*%
D13*
%TO.C,C9*%
X128250000Y-56617500D03*
X128250000Y-59742500D03*
%TD*%
D11*
%TO.C,R9*%
X86750000Y-86425000D03*
X89850000Y-86425000D03*
%TD*%
%TO.C,R11*%
X86750000Y-78925000D03*
X89850000Y-78925000D03*
%TD*%
D13*
%TO.C,C3*%
X151262500Y-99787500D03*
X151262500Y-102912500D03*
%TD*%
%TO.C,C5*%
X193150000Y-85362500D03*
X193150000Y-88487500D03*
%TD*%
D11*
%TO.C,R13*%
X235900000Y-92305000D03*
X239000000Y-92305000D03*
%TD*%
D10*
%TO.C,R1*%
X89819737Y-68525000D03*
X86719737Y-68525000D03*
%TD*%
D12*
%TO.C,C17*%
X225337500Y-101150000D03*
X222212500Y-101150000D03*
%TD*%
D14*
%TO.C,U6*%
X216050000Y-45225000D03*
X216050000Y-46495000D03*
X216050000Y-47765000D03*
X216050000Y-49035000D03*
X216050000Y-50305000D03*
X216050000Y-51575000D03*
X216050000Y-52845000D03*
X216050000Y-54115000D03*
X216050000Y-55385000D03*
X216050000Y-56655000D03*
X225350000Y-56655000D03*
X225350000Y-55385000D03*
X225350000Y-54115000D03*
X225350000Y-52845000D03*
X225350000Y-51575000D03*
X225350000Y-50305000D03*
X225350000Y-49035000D03*
X225350000Y-47765000D03*
X225350000Y-46495000D03*
X225350000Y-45225000D03*
%TD*%
D11*
%TO.C,R16*%
X235896648Y-56230000D03*
X238996648Y-56230000D03*
%TD*%
D15*
%TO.C,SD1*%
X70685633Y-95882488D03*
X70685633Y-93382488D03*
X70685633Y-90082488D03*
X70685633Y-88382488D03*
X70685633Y-85882488D03*
X70685633Y-83382488D03*
X70685633Y-80957488D03*
X70685633Y-79257488D03*
X70685633Y-98382488D03*
X70685633Y-91732488D03*
D16*
X48485633Y-75407488D03*
X49685633Y-103407488D03*
D15*
X70685633Y-75907488D03*
%TD*%
D11*
%TO.C,R4*%
X86775000Y-105425000D03*
X89875000Y-105425000D03*
%TD*%
D14*
%TO.C,U5*%
X216050000Y-65552500D03*
X216050000Y-66822500D03*
X216050000Y-68092500D03*
X216050000Y-69362500D03*
X216050000Y-70632500D03*
X216050000Y-71902500D03*
X216050000Y-73172500D03*
X216050000Y-74442500D03*
X216050000Y-75712500D03*
X216050000Y-76982500D03*
X225350000Y-76982500D03*
X225350000Y-75712500D03*
X225350000Y-74442500D03*
X225350000Y-73172500D03*
X225350000Y-71902500D03*
X225350000Y-70632500D03*
X225350000Y-69362500D03*
X225350000Y-68092500D03*
X225350000Y-66822500D03*
X225350000Y-65552500D03*
%TD*%
D11*
%TO.C,R12*%
X235900000Y-89825000D03*
X239000000Y-89825000D03*
%TD*%
%TO.C,R15*%
X235898816Y-60010000D03*
X238998816Y-60010000D03*
%TD*%
D13*
%TO.C,C12*%
X193150000Y-95450000D03*
X193150000Y-98575000D03*
%TD*%
%TO.C,C10*%
X74225000Y-88417500D03*
X74225000Y-91542500D03*
%TD*%
%TO.C,C8*%
X151000000Y-87592500D03*
X151000000Y-90717500D03*
%TD*%
D12*
%TO.C,C2*%
X174187500Y-107775000D03*
X171062500Y-107775000D03*
%TD*%
D11*
%TO.C,R21*%
X235900000Y-84925000D03*
X239000000Y-84925000D03*
%TD*%
D17*
%TO.C,C1*%
X144677750Y-83337500D03*
X144677750Y-80212500D03*
%TD*%
D11*
%TO.C,R2*%
X86775000Y-109100000D03*
X89875000Y-109100000D03*
%TD*%
D18*
%TO.C,D1*%
X141575000Y-58025000D03*
X138575000Y-58025000D03*
%TD*%
D14*
%TO.C,U4*%
X216050000Y-84685000D03*
X216050000Y-85955000D03*
X216050000Y-87225000D03*
X216050000Y-88495000D03*
X216050000Y-89765000D03*
X216050000Y-91035000D03*
X216050000Y-92305000D03*
X216050000Y-93575000D03*
X216050000Y-94845000D03*
X216050000Y-96115000D03*
X225350000Y-96115000D03*
X225350000Y-94845000D03*
X225350000Y-93575000D03*
X225350000Y-92305000D03*
X225350000Y-91035000D03*
X225350000Y-89765000D03*
X225350000Y-88495000D03*
X225350000Y-87225000D03*
X225350000Y-85955000D03*
X225350000Y-84685000D03*
%TD*%
D17*
%TO.C,C6*%
X193100000Y-73582500D03*
X193100000Y-70457500D03*
%TD*%
D14*
%TO.C,U3*%
X216050000Y-104985000D03*
X216050000Y-106255000D03*
X216050000Y-107525000D03*
X216050000Y-108795000D03*
X216050000Y-110065000D03*
X216050000Y-111335000D03*
X216050000Y-112605000D03*
X216050000Y-113875000D03*
X216050000Y-115145000D03*
X216050000Y-116415000D03*
X225350000Y-116415000D03*
X225350000Y-115145000D03*
X225350000Y-113875000D03*
X225350000Y-112605000D03*
X225350000Y-111335000D03*
X225350000Y-110065000D03*
X225350000Y-108795000D03*
X225350000Y-107525000D03*
X225350000Y-106255000D03*
X225350000Y-104985000D03*
%TD*%
D10*
%TO.C,R3*%
X89819737Y-72655000D03*
X86719737Y-72655000D03*
%TD*%
%TO.C,R14*%
X239000000Y-63975000D03*
X235900000Y-63975000D03*
%TD*%
D11*
%TO.C,R5*%
X86750000Y-101675000D03*
X89850000Y-101675000D03*
%TD*%
D19*
%TO.C,C7*%
X166567500Y-66200000D03*
X169692500Y-66200000D03*
%TD*%
D12*
%TO.C,C11*%
X195662500Y-80090000D03*
X192537500Y-80090000D03*
%TD*%
D11*
%TO.C,R19*%
X235900000Y-78625000D03*
X239000000Y-78625000D03*
%TD*%
D12*
%TO.C,C19*%
X225362500Y-62025000D03*
X222237500Y-62025000D03*
%TD*%
D10*
%TO.C,R18*%
X238997021Y-74975000D03*
X235897021Y-74975000D03*
%TD*%
D13*
%TO.C,C4*%
X128300000Y-64812500D03*
X128300000Y-67937500D03*
%TD*%
D10*
%TO.C,R20*%
X239000000Y-82575000D03*
X235900000Y-82575000D03*
%TD*%
D17*
%TO.C,C13*%
X151467500Y-80225000D03*
X151467500Y-77100000D03*
%TD*%
D11*
%TO.C,R6*%
X86750000Y-97925000D03*
X89850000Y-97925000D03*
%TD*%
D18*
%TO.C,D2*%
X141575000Y-60125000D03*
X138575000Y-60125000D03*
%TD*%
D20*
%TO.C,U2*%
X141866000Y-93200000D03*
X141866000Y-92700000D03*
X141866000Y-92200000D03*
X141866000Y-91700000D03*
X141866000Y-91200000D03*
X141866000Y-90700000D03*
X141866000Y-90200000D03*
X141866000Y-89700000D03*
X141866000Y-89200000D03*
X141866000Y-88700000D03*
X141866000Y-88200000D03*
X141866000Y-87700000D03*
X141866000Y-87200000D03*
X141866000Y-86700000D03*
X141866000Y-86200000D03*
X141866000Y-85700000D03*
X141866000Y-85200000D03*
X141866000Y-84700000D03*
X141866000Y-84200000D03*
X141866000Y-83700000D03*
X141866000Y-83200000D03*
X141866000Y-82700000D03*
X141866000Y-82200000D03*
X141866000Y-81700000D03*
X141866000Y-81200000D03*
X141866000Y-80700000D03*
X141866000Y-80200000D03*
X141866000Y-79700000D03*
X134290000Y-79700000D03*
X134290000Y-80200000D03*
X134290000Y-80700000D03*
X134290000Y-81200000D03*
X134290000Y-81700000D03*
X134290000Y-82200000D03*
X134290000Y-82700000D03*
X134290000Y-83200000D03*
X134290000Y-83700000D03*
X134290000Y-84200000D03*
X134290000Y-84700000D03*
X134290000Y-85200000D03*
X134290000Y-85700000D03*
X134290000Y-86200000D03*
X134290000Y-86700000D03*
X134290000Y-87200000D03*
X134290000Y-87700000D03*
X134290000Y-88200000D03*
X134290000Y-88700000D03*
X134290000Y-89200000D03*
X134290000Y-89700000D03*
X134290000Y-90200000D03*
X134290000Y-90700000D03*
X134290000Y-91200000D03*
X134290000Y-91700000D03*
X134290000Y-92200000D03*
X134290000Y-92700000D03*
X134290000Y-93200000D03*
%TD*%
D11*
%TO.C,R17*%
X235900000Y-67620000D03*
X239000000Y-67620000D03*
%TD*%
%TO.C,R7*%
X86750000Y-93940000D03*
X89850000Y-93940000D03*
%TD*%
D12*
%TO.C,C20*%
X225362500Y-41630000D03*
X222237500Y-41630000D03*
%TD*%
M02*
