%TF.GenerationSoftware,KiCad,Pcbnew,10.0.1*%
%TF.CreationDate,2026-09-06T15:38:23+02:00*%
%TF.ProjectId,MatshitaPico,4d617473-6869-4746-9150-69636f2e6b69,rev.1*%
%TF.SameCoordinates,Original*%
%TF.FileFunction,Soldermask,Bot*%
%TF.FilePolarity,Negative*%
%FSLAX46Y46*%
G04 Gerber Fmt 4.6, Leading zero omitted, Abs format (unit mm)*
G04 Created by KiCad (PCBNEW 10.0.1) date 2026-09-06 15:38:23*
%MOMM*%
%LPD*%
G01*
G04 APERTURE LIST*
G04 Aperture macros list*
%AMRoundRect*
0 Rectangle with rounded corners*
0 $1 Rounding radius*
0 $2 $3 $4 $5 $6 $7 $8 $9 X,Y pos of 4 corners*
0 Add a 4 corners polygon primitive as box body*
4,1,4,$2,$3,$4,$5,$6,$7,$8,$9,$2,$3,0*
0 Add four circle primitives for the rounded corners*
1,1,$1+$1,$2,$3*
1,1,$1+$1,$4,$5*
1,1,$1+$1,$6,$7*
1,1,$1+$1,$8,$9*
0 Add four rect primitives between the rounded corners*
20,1,$1+$1,$2,$3,$4,$5,0*
20,1,$1+$1,$4,$5,$6,$7,0*
20,1,$1+$1,$6,$7,$8,$9,0*
20,1,$1+$1,$8,$9,$2,$3,0*%
%AMFreePoly0*
4,1,37,0.603843,0.796157,0.639018,0.796157,0.711114,0.766294,0.766294,0.711114,0.796157,0.639018,0.796157,0.603843,0.800000,0.600000,0.800000,-0.600000,0.796157,-0.603843,0.796157,-0.639018,0.766294,-0.711114,0.711114,-0.766294,0.639018,-0.796157,0.603843,-0.796157,0.600000,-0.800000,0.000000,-0.800000,0.000000,-0.796148,-0.078414,-0.796148,-0.232228,-0.765552,-0.377117,-0.705537,
-0.507515,-0.618408,-0.618408,-0.507515,-0.705537,-0.377117,-0.765552,-0.232228,-0.796148,-0.078414,-0.796148,0.078414,-0.765552,0.232228,-0.705537,0.377117,-0.618408,0.507515,-0.507515,0.618408,-0.377117,0.705537,-0.232228,0.765552,-0.078414,0.796148,0.000000,0.796148,0.000000,0.800000,0.600000,0.800000,0.603843,0.796157,0.603843,0.796157,$1*%
%AMFreePoly1*
4,1,37,0.000000,0.796148,0.078414,0.796148,0.232228,0.765552,0.377117,0.705537,0.507515,0.618408,0.618408,0.507515,0.705537,0.377117,0.765552,0.232228,0.796148,0.078414,0.796148,-0.078414,0.765552,-0.232228,0.705537,-0.377117,0.618408,-0.507515,0.507515,-0.618408,0.377117,-0.705537,0.232228,-0.765552,0.078414,-0.796148,0.000000,-0.796148,0.000000,-0.800000,-0.600000,-0.800000,
-0.603843,-0.796157,-0.639018,-0.796157,-0.711114,-0.766294,-0.766294,-0.711114,-0.796157,-0.639018,-0.796157,-0.603843,-0.800000,-0.600000,-0.800000,0.600000,-0.796157,0.603843,-0.796157,0.639018,-0.766294,0.711114,-0.711114,0.766294,-0.639018,0.796157,-0.603843,0.796157,-0.600000,0.800000,0.000000,0.800000,0.000000,0.796148,0.000000,0.796148,$1*%
G04 Aperture macros list end*
%ADD10R,1.600000X1.600000*%
%ADD11C,1.600000*%
%ADD12C,2.540000*%
%ADD13C,4.000000*%
%ADD14C,2.400000*%
%ADD15C,2.200000*%
%ADD16C,1.850000*%
%ADD17RoundRect,0.200000X-0.600000X-0.600000X0.600000X-0.600000X0.600000X0.600000X-0.600000X0.600000X0*%
%ADD18FreePoly0,0.000000*%
%ADD19FreePoly1,0.000000*%
%ADD20C,1.500000*%
%ADD21RoundRect,0.250000X0.550000X0.550000X-0.550000X0.550000X-0.550000X-0.550000X0.550000X-0.550000X0*%
%ADD22C,4.300000*%
%ADD23C,1.540000*%
%ADD24C,1.950000*%
%ADD25RoundRect,0.250000X0.625000X-0.350000X0.625000X0.350000X-0.625000X0.350000X-0.625000X-0.350000X0*%
%ADD26O,1.750000X1.200000*%
%ADD27RoundRect,0.250000X-0.550000X0.550000X-0.550000X-0.550000X0.550000X-0.550000X0.550000X0.550000X0*%
%ADD28R,1.422400X1.422400*%
%ADD29C,1.422400*%
%ADD30R,1.650000X1.650000*%
%ADD31C,1.650000*%
G04 APERTURE END LIST*
D10*
%TO.C,RN1*%
X230975000Y-101825000D03*
D11*
X230975000Y-104365000D03*
X230975000Y-106905000D03*
X230975000Y-109445000D03*
X230975000Y-111985000D03*
X230975000Y-114525000D03*
X230975000Y-117065000D03*
X230975000Y-119605000D03*
X230975000Y-122145000D03*
%TD*%
D12*
%TO.C,J1*%
X247887890Y-123635000D03*
D13*
X255507890Y-128715000D03*
X255507890Y-138875000D03*
D12*
X247887890Y-143955000D03*
D14*
X245347890Y-141415000D03*
X245347890Y-136335000D03*
X245347890Y-131255000D03*
X245347890Y-126175000D03*
%TD*%
D15*
%TO.C,A1*%
X111210000Y-54761884D03*
D16*
X111510000Y-57791884D03*
X116360000Y-57791884D03*
D15*
X116660000Y-54761884D03*
D17*
X105045000Y-54631884D03*
D11*
X105045000Y-57171884D03*
D18*
X105045000Y-59711884D03*
D11*
X105045000Y-62251884D03*
X105045000Y-64791884D03*
X105045000Y-67331884D03*
X105045000Y-69871884D03*
D18*
X105045000Y-72411884D03*
D11*
X105045000Y-74951884D03*
X105045000Y-77491884D03*
X105045000Y-80031884D03*
X105045000Y-82571884D03*
D18*
X105045000Y-85111884D03*
D11*
X105045000Y-87651884D03*
X105045000Y-90191884D03*
X105045000Y-92731884D03*
X105045000Y-95271884D03*
D18*
X105045000Y-97811884D03*
D11*
X105045000Y-100351884D03*
X105045000Y-102891884D03*
X122825000Y-102891884D03*
X122825000Y-100351884D03*
D19*
X122825000Y-97811884D03*
D11*
X122825000Y-95271884D03*
X122825000Y-92731884D03*
X122825000Y-90191884D03*
X122825000Y-87651884D03*
D19*
X122825000Y-85111884D03*
D11*
X122825000Y-82571884D03*
X122825000Y-80031884D03*
X122825000Y-77491884D03*
X122825000Y-74951884D03*
D19*
X122825000Y-72411884D03*
D11*
X122825000Y-69871884D03*
X122825000Y-67331884D03*
X122825000Y-64791884D03*
X122825000Y-62251884D03*
D19*
X122825000Y-59711884D03*
D11*
X122825000Y-57171884D03*
X122825000Y-54631884D03*
%TD*%
D20*
%TO.C,SD1*%
X46385633Y-76907488D03*
X46385633Y-101107488D03*
%TD*%
D21*
%TO.C,C15*%
X139157862Y-97475000D03*
D11*
X136657862Y-97475000D03*
%TD*%
D22*
%TO.C,REF\u002A\u002A*%
X205000000Y-42000000D03*
%TD*%
D10*
%TO.C,Y1*%
X200760000Y-76940000D03*
D11*
X200760000Y-92180000D03*
X208380000Y-92180000D03*
X208380000Y-76940000D03*
%TD*%
D23*
%TO.C,SW1*%
X46032500Y-65959384D03*
X46032500Y-70459384D03*
D24*
X48522500Y-71714384D03*
X48522500Y-64704384D03*
%TD*%
D22*
%TO.C,REF\u002A\u002A*%
X44280000Y-113400000D03*
%TD*%
D25*
%TO.C,J3*%
X251050000Y-50000000D03*
D26*
X251050000Y-48000000D03*
X251050000Y-46000000D03*
%TD*%
D27*
%TO.C,C14*%
X233360000Y-129724888D03*
D11*
X233360000Y-132224888D03*
%TD*%
D22*
%TO.C,REF\u002A\u002A*%
X44450000Y-55974113D03*
%TD*%
D28*
%TO.C,U1*%
X186890000Y-86575000D03*
D29*
X184350000Y-86575000D03*
X186890000Y-84035000D03*
X184350000Y-84035000D03*
X186890000Y-81495000D03*
X184350000Y-81495000D03*
X186890000Y-78955000D03*
X184350000Y-78955000D03*
X186890000Y-76415000D03*
X184350000Y-76415000D03*
X186890000Y-73875000D03*
X184350000Y-71335000D03*
X184350000Y-73875000D03*
X181810000Y-71335000D03*
X181810000Y-73875000D03*
X179270000Y-71335000D03*
X179270000Y-73875000D03*
X176730000Y-71335000D03*
X176730000Y-73875000D03*
X174190000Y-71335000D03*
X174190000Y-73875000D03*
X171650000Y-71335000D03*
X171650000Y-73875000D03*
X169110000Y-71335000D03*
X169110000Y-73875000D03*
X166570000Y-71335000D03*
X166570000Y-73875000D03*
X164030000Y-71335000D03*
X164030000Y-73875000D03*
X161490000Y-71335000D03*
X161490000Y-73875000D03*
X158950000Y-71335000D03*
X156410000Y-73875000D03*
X158950000Y-73875000D03*
X156410000Y-76415000D03*
X158950000Y-76415000D03*
X156410000Y-78955000D03*
X158950000Y-78955000D03*
X156410000Y-81495000D03*
X158950000Y-81495000D03*
X156410000Y-84035000D03*
X158950000Y-84035000D03*
X156410000Y-86575000D03*
X158950000Y-86575000D03*
X156410000Y-89115000D03*
X158950000Y-89115000D03*
X156410000Y-91655000D03*
X158950000Y-91655000D03*
X156410000Y-94195000D03*
X158950000Y-94195000D03*
X156410000Y-96735000D03*
X158950000Y-96735000D03*
X156410000Y-99275000D03*
X158950000Y-101815000D03*
X158950000Y-99275000D03*
X161490000Y-101815000D03*
X161490000Y-99275000D03*
X164030000Y-101815000D03*
X164030000Y-99275000D03*
X166570000Y-101815000D03*
X166570000Y-99275000D03*
X169110000Y-101815000D03*
X169110000Y-99275000D03*
X171650000Y-101815000D03*
X171650000Y-99275000D03*
X174190000Y-101815000D03*
X174190000Y-99275000D03*
X176730000Y-101815000D03*
X176730000Y-99275000D03*
X179270000Y-101815000D03*
X179270000Y-99275000D03*
X181810000Y-101815000D03*
X181810000Y-99275000D03*
X184350000Y-101815000D03*
X186890000Y-99275000D03*
X184350000Y-99275000D03*
X186890000Y-96735000D03*
X184350000Y-96735000D03*
X186890000Y-94195000D03*
X184350000Y-94195000D03*
X186890000Y-91655000D03*
X184350000Y-91655000D03*
X186890000Y-89115000D03*
X184350000Y-89115000D03*
%TD*%
D22*
%TO.C,REF\u002A\u002A*%
X203025000Y-142300000D03*
%TD*%
D27*
%TO.C,C16*%
X78850000Y-88414775D03*
D11*
X78850000Y-90914775D03*
%TD*%
D10*
%TO.C,RN2*%
X230995281Y-85930000D03*
D11*
X230995281Y-88470000D03*
X230995281Y-91010000D03*
X230995281Y-93550000D03*
X230995281Y-96090000D03*
%TD*%
D30*
%TO.C,J2*%
X243872500Y-63990000D03*
D31*
X246412500Y-63990000D03*
X243872500Y-66530000D03*
X246412500Y-66530000D03*
X243872500Y-69070000D03*
X246412500Y-69070000D03*
X243872500Y-71610000D03*
X246412500Y-71610000D03*
X243872500Y-74150000D03*
X246412500Y-74150000D03*
X243872500Y-76690000D03*
X246412500Y-76690000D03*
X243872500Y-79230000D03*
X246412500Y-79230000D03*
X243872500Y-81770000D03*
X246412500Y-81770000D03*
X243872500Y-84310000D03*
X246412500Y-84310000D03*
X243872500Y-86850000D03*
X246412500Y-86850000D03*
X243872500Y-89390000D03*
X246412500Y-89390000D03*
X243872500Y-91930000D03*
X246412500Y-91930000D03*
X243872500Y-94470000D03*
X246412500Y-94470000D03*
X243872500Y-97010000D03*
X246412500Y-97010000D03*
X243872500Y-99550000D03*
X246412500Y-99550000D03*
X243872500Y-102090000D03*
X246412500Y-102090000D03*
X243872500Y-104630000D03*
X246412500Y-104630000D03*
X243872500Y-107170000D03*
X246412500Y-107170000D03*
X243872500Y-109710000D03*
X246412500Y-109710000D03*
X243872500Y-112250000D03*
X246412500Y-112250000D03*
%TD*%
M02*
