M48
; DRILL file KiCad 10.0.1 date 2026-09-06T15:38:26
; FORMAT={-:-/ absolute / metric / decimal}
; #@! TF.CreationDate,2026-09-06T15:38:26+02:00
; #@! TF.GenerationSoftware,Kicad,Pcbnew,10.0.1
; #@! TF.FileFunction,Plated,1,4,PTH
FMAT,2
METRIC
; #@! TA.AperFunction,Plated,PTH,ViaDrill
T1C0.300
; #@! TA.AperFunction,Plated,PTH,ViaDrill
T2C0.400
; #@! TA.AperFunction,Plated,PTH,ComponentDrill
T3C0.750
; #@! TA.AperFunction,Plated,PTH,ComponentDrill
T4C0.800
; #@! TA.AperFunction,Plated,PTH,ComponentDrill
T5C0.990
; #@! TA.AperFunction,Plated,PTH,ComponentDrill
T6C1.000
; #@! TA.AperFunction,Plated,PTH,ComponentDrill
T7C1.100
; #@! TA.AperFunction,Plated,PTH,ComponentDrill
T8C1.300
; #@! TA.AperFunction,Plated,PTH,ComponentDrill
T9C1.600
%
G90
G05
T1
X74.675Y-114.9
X74.729Y-95.879
X76.775Y-68.525
X76.775Y-79.25
X77.825Y-70.225
X77.825Y-80.95
X78.6Y-74.425
X78.6Y-85.875
X81.525Y-75.025
X81.525Y-93.375
X82.125Y-72.655
X82.125Y-98.375
X105.05Y-114.875
X117.675Y-96.55
X117.675Y-104.725
X131.7Y-60.125
X135.125Y-58.175
X138.003Y-84.2
X138.013Y-89.7
X144.678Y-81.825
X174.175Y-60.125
X176.025Y-111.475
X176.725Y-58.675
X177.375Y-59.325
X179.25Y-57.55
X179.869Y-56.975
X218.3Y-56.655
X218.475Y-96.125
X218.675Y-65.552
X218.775Y-84.675
X218.9Y-45.225
X220.412Y-67.438
X222.575Y-85.95
X222.775Y-106.275
X222.875Y-66.825
X223.8Y-41.6
X225.35Y-43.5
X228.175Y-46.5
X233.85Y-63.975
X241.075Y-56.225
X241.075Y-78.075
X241.075Y-84.3
T2
X93.15Y-68.5
X93.15Y-72.675
X93.15Y-76.4
X109.175Y-113.4
X144.678Y-78.65
X151.25Y-104.8
X153.8Y-77.1
X168.875Y-107.775
X171.85Y-66.2
X195.2Y-88.475
X195.275Y-70.45
X195.725Y-98.575
X213.25Y-116.4
X216.05Y-78.7
X219.5Y-81.125
X223.8Y-81.125
X223.8Y-101.15
X228.1Y-87.225
X228.125Y-99.575
X237.5Y-71.35
T3
X251.05Y-46.0
X251.05Y-48.0
X251.05Y-50.0
T4
X78.85Y-88.415
X78.85Y-90.915
X136.658Y-97.475
X139.158Y-97.475
X156.41Y-73.875
X156.41Y-76.415
X156.41Y-78.955
X156.41Y-81.495
X156.41Y-84.035
X156.41Y-86.575
X156.41Y-89.115
X156.41Y-91.655
X156.41Y-94.195
X156.41Y-96.735
X156.41Y-99.275
X158.95Y-71.335
X158.95Y-73.875
X158.95Y-76.415
X158.95Y-78.955
X158.95Y-81.495
X158.95Y-84.035
X158.95Y-86.575
X158.95Y-89.115
X158.95Y-91.655
X158.95Y-94.195
X158.95Y-96.735
X158.95Y-99.275
X158.95Y-101.815
X161.49Y-71.335
X161.49Y-73.875
X161.49Y-99.275
X161.49Y-101.815
X164.03Y-71.335
X164.03Y-73.875
X164.03Y-99.275
X164.03Y-101.815
X166.57Y-71.335
X166.57Y-73.875
X166.57Y-99.275
X166.57Y-101.815
X169.11Y-71.335
X169.11Y-73.875
X169.11Y-99.275
X169.11Y-101.815
X171.65Y-71.335
X171.65Y-73.875
X171.65Y-99.275
X171.65Y-101.815
X174.19Y-71.335
X174.19Y-73.875
X174.19Y-99.275
X174.19Y-101.815
X176.73Y-71.335
X176.73Y-73.875
X176.73Y-99.275
X176.73Y-101.815
X179.27Y-71.335
X179.27Y-73.875
X179.27Y-99.275
X179.27Y-101.815
X181.81Y-71.335
X181.81Y-73.875
X181.81Y-99.275
X181.81Y-101.815
X184.35Y-71.335
X184.35Y-73.875
X184.35Y-76.415
X184.35Y-78.955
X184.35Y-81.495
X184.35Y-84.035
X184.35Y-86.575
X184.35Y-89.115
X184.35Y-91.655
X184.35Y-94.195
X184.35Y-96.735
X184.35Y-99.275
X184.35Y-101.815
X186.89Y-73.875
X186.89Y-76.415
X186.89Y-78.955
X186.89Y-81.495
X186.89Y-84.035
X186.89Y-86.575
X186.89Y-89.115
X186.89Y-91.655
X186.89Y-94.195
X186.89Y-96.735
X186.89Y-99.275
X200.76Y-76.94
X200.76Y-92.18
X208.38Y-76.94
X208.38Y-92.18
X230.975Y-101.825
X230.975Y-104.365
X230.975Y-106.905
X230.975Y-109.445
X230.975Y-111.985
X230.975Y-114.525
X230.975Y-117.065
X230.975Y-119.605
X230.975Y-122.145
X230.995Y-85.93
X230.995Y-88.47
X230.995Y-91.01
X230.995Y-93.55
X230.995Y-96.09
X233.36Y-129.725
X233.36Y-132.225
T5
X46.032Y-65.959
X46.032Y-70.459
T6
X105.045Y-54.632
X105.045Y-57.172
X105.045Y-59.712
X105.045Y-62.252
X105.045Y-64.792
X105.045Y-67.332
X105.045Y-69.872
X105.045Y-72.412
X105.045Y-74.952
X105.045Y-77.492
X105.045Y-80.032
X105.045Y-82.572
X105.045Y-85.112
X105.045Y-87.652
X105.045Y-90.192
X105.045Y-92.732
X105.045Y-95.272
X105.045Y-97.812
X105.045Y-100.352
X105.045Y-102.892
X122.825Y-54.632
X122.825Y-57.172
X122.825Y-59.712
X122.825Y-62.252
X122.825Y-64.792
X122.825Y-67.332
X122.825Y-69.872
X122.825Y-72.412
X122.825Y-74.952
X122.825Y-77.492
X122.825Y-80.032
X122.825Y-82.572
X122.825Y-85.112
X122.825Y-87.652
X122.825Y-90.192
X122.825Y-92.732
X122.825Y-95.272
X122.825Y-97.812
X122.825Y-100.352
X122.825Y-102.892
T7
X243.873Y-63.99
X243.873Y-66.53
X243.873Y-69.07
X243.873Y-71.61
X243.873Y-74.15
X243.873Y-76.69
X243.873Y-79.23
X243.873Y-81.77
X243.873Y-84.31
X243.873Y-86.85
X243.873Y-89.39
X243.873Y-91.93
X243.873Y-94.47
X243.873Y-97.01
X243.873Y-99.55
X243.873Y-102.09
X243.873Y-104.63
X243.873Y-107.17
X243.873Y-109.71
X243.873Y-112.25
X246.412Y-63.99
X246.412Y-66.53
X246.412Y-69.07
X246.412Y-71.61
X246.412Y-74.15
X246.412Y-76.69
X246.412Y-79.23
X246.412Y-81.77
X246.412Y-84.31
X246.412Y-86.85
X246.412Y-89.39
X246.412Y-91.93
X246.412Y-94.47
X246.412Y-97.01
X246.412Y-99.55
X246.412Y-102.09
X246.412Y-104.63
X246.412Y-107.17
X246.412Y-109.71
X246.412Y-112.25
T8
X48.523Y-64.704
X48.523Y-71.714
T9
X245.348Y-126.175
X245.348Y-131.255
X245.348Y-136.335
X245.348Y-141.415
M30
