%TF.GenerationSoftware,KiCad,Pcbnew,10.0.1*%
%TF.CreationDate,2026-09-06T15:38:23+02:00*%
%TF.ProjectId,MatshitaPico,4d617473-6869-4746-9150-69636f2e6b69,rev.1*%
%TF.SameCoordinates,Original*%
%TF.FileFunction,Soldermask,Top*%
%TF.FilePolarity,Negative*%
%FSLAX46Y46*%
G04 Gerber Fmt 4.6, Leading zero omitted, Abs format (unit mm)*
G04 Created by KiCad (PCBNEW 10.0.1) date 2026-09-06 15:38:23*
%MOMM*%
%LPD*%
G01*
G04 APERTURE LIST*
G04 Aperture macros list*
%AMRoundRect*
0 Rectangle with rounded corners*
0 $1 Rounding radius*
0 $2 $3 $4 $5 $6 $7 $8 $9 X,Y pos of 4 corners*
0 Add a 4 corners polygon primitive as box body*
4,1,4,$2,$3,$4,$5,$6,$7,$8,$9,$2,$3,0*
0 Add four circle primitives for the rounded corners*
1,1,$1+$1,$2,$3*
1,1,$1+$1,$4,$5*
1,1,$1+$1,$6,$7*
1,1,$1+$1,$8,$9*
0 Add four rect primitives between the rounded corners*
20,1,$1+$1,$2,$3,$4,$5,0*
20,1,$1+$1,$4,$5,$6,$7,0*
20,1,$1+$1,$6,$7,$8,$9,0*
20,1,$1+$1,$8,$9,$2,$3,0*%
%AMFreePoly0*
4,1,37,0.800000,0.796148,0.878414,0.796148,1.032228,0.765552,1.177117,0.705537,1.307515,0.618408,1.418408,0.507515,1.505537,0.377117,1.565552,0.232228,1.596148,0.078414,1.596148,-0.078414,1.565552,-0.232228,1.505537,-0.377117,1.418408,-0.507515,1.307515,-0.618408,1.177117,-0.705537,1.032228,-0.765552,0.878414,-0.796148,0.800000,-0.796148,0.800000,-0.800000,-1.400000,-0.800000,
-1.403843,-0.796157,-1.439018,-0.796157,-1.511114,-0.766294,-1.566294,-0.711114,-1.596157,-0.639018,-1.596157,-0.603843,-1.600000,-0.600000,-1.600000,0.600000,-1.596157,0.603843,-1.596157,0.639018,-1.566294,0.711114,-1.511114,0.766294,-1.439018,0.796157,-1.403843,0.796157,-1.400000,0.800000,0.800000,0.800000,0.800000,0.796148,0.800000,0.796148,$1*%
%AMFreePoly1*
4,1,37,1.403843,0.796157,1.439018,0.796157,1.511114,0.766294,1.566294,0.711114,1.596157,0.639018,1.596157,0.603843,1.600000,0.600000,1.600000,-0.600000,1.596157,-0.603843,1.596157,-0.639018,1.566294,-0.711114,1.511114,-0.766294,1.439018,-0.796157,1.403843,-0.796157,1.400000,-0.800000,-0.800000,-0.800000,-0.800000,-0.796148,-0.878414,-0.796148,-1.032228,-0.765552,-1.177117,-0.705537,
-1.307515,-0.618408,-1.418408,-0.507515,-1.505537,-0.377117,-1.565552,-0.232228,-1.596148,-0.078414,-1.596148,0.078414,-1.565552,0.232228,-1.505537,0.377117,-1.418408,0.507515,-1.307515,0.618408,-1.177117,0.705537,-1.032228,0.765552,-0.878414,0.796148,-0.800000,0.796148,-0.800000,0.800000,1.400000,0.800000,1.403843,0.796157,1.403843,0.796157,$1*%
%AMFreePoly2*
4,1,37,0.603843,0.796157,0.639018,0.796157,0.711114,0.766294,0.766294,0.711114,0.796157,0.639018,0.796157,0.603843,0.800000,0.600000,0.800000,-0.600000,0.796157,-0.603843,0.796157,-0.639018,0.766294,-0.711114,0.711114,-0.766294,0.639018,-0.796157,0.603843,-0.796157,0.600000,-0.800000,0.000000,-0.800000,0.000000,-0.796148,-0.078414,-0.796148,-0.232228,-0.765552,-0.377117,-0.705537,
-0.507515,-0.618408,-0.618408,-0.507515,-0.705537,-0.377117,-0.765552,-0.232228,-0.796148,-0.078414,-0.796148,0.078414,-0.765552,0.232228,-0.705537,0.377117,-0.618408,0.507515,-0.507515,0.618408,-0.377117,0.705537,-0.232228,0.765552,-0.078414,0.796148,0.000000,0.796148,0.000000,0.800000,0.600000,0.800000,0.603843,0.796157,0.603843,0.796157,$1*%
%AMFreePoly3*
4,1,37,0.000000,0.796148,0.078414,0.796148,0.232228,0.765552,0.377117,0.705537,0.507515,0.618408,0.618408,0.507515,0.705537,0.377117,0.765552,0.232228,0.796148,0.078414,0.796148,-0.078414,0.765552,-0.232228,0.705537,-0.377117,0.618408,-0.507515,0.507515,-0.618408,0.377117,-0.705537,0.232228,-0.765552,0.078414,-0.796148,0.000000,-0.796148,0.000000,-0.800000,-0.600000,-0.800000,
-0.603843,-0.796157,-0.639018,-0.796157,-0.711114,-0.766294,-0.766294,-0.711114,-0.796157,-0.639018,-0.796157,-0.603843,-0.800000,-0.600000,-0.800000,0.600000,-0.796157,0.603843,-0.796157,0.639018,-0.766294,0.711114,-0.711114,0.766294,-0.639018,0.796157,-0.603843,0.796157,-0.600000,0.800000,0.000000,0.800000,0.000000,0.796148,0.000000,0.796148,$1*%
%AMFreePoly4*
4,1,23,0.500000,-0.750000,0.000000,-0.750000,0.000000,-0.745722,-0.065263,-0.745722,-0.191342,-0.711940,-0.304381,-0.646677,-0.396677,-0.554381,-0.461940,-0.441342,-0.495722,-0.315263,-0.495722,-0.250000,-0.500000,-0.250000,-0.500000,0.250000,-0.495722,0.250000,-0.495722,0.315263,-0.461940,0.441342,-0.396677,0.554381,-0.304381,0.646677,-0.191342,0.711940,-0.065263,0.745722,0.000000,0.745722,
0.000000,0.750000,0.500000,0.750000,0.500000,-0.750000,0.500000,-0.750000,$1*%
%AMFreePoly5*
4,1,23,0.000000,0.745722,0.065263,0.745722,0.191342,0.711940,0.304381,0.646677,0.396677,0.554381,0.461940,0.441342,0.495722,0.315263,0.495722,0.250000,0.500000,0.250000,0.500000,-0.250000,0.495722,-0.250000,0.495722,-0.315263,0.461940,-0.441342,0.396677,-0.554381,0.304381,-0.646677,0.191342,-0.711940,0.065263,-0.745722,0.000000,-0.745722,0.000000,-0.750000,-0.500000,-0.750000,
-0.500000,0.750000,0.000000,0.750000,0.000000,0.745722,0.000000,0.745722,$1*%
G04 Aperture macros list end*
%ADD10RoundRect,0.250000X0.400000X0.625000X-0.400000X0.625000X-0.400000X-0.625000X0.400000X-0.625000X0*%
%ADD11RoundRect,0.250000X-0.400000X-0.625000X0.400000X-0.625000X0.400000X0.625000X-0.400000X0.625000X0*%
%ADD12RoundRect,0.250000X0.412500X0.650000X-0.412500X0.650000X-0.412500X-0.650000X0.412500X-0.650000X0*%
%ADD13R,1.600000X1.600000*%
%ADD14C,1.600000*%
%ADD15RoundRect,0.250000X-0.650000X0.412500X-0.650000X-0.412500X0.650000X-0.412500X0.650000X0.412500X0*%
%ADD16C,2.540000*%
%ADD17C,4.000000*%
%ADD18C,2.400000*%
%ADD19C,2.200000*%
%ADD20C,1.850000*%
%ADD21FreePoly0,0.000000*%
%ADD22RoundRect,0.200000X-0.600000X-0.600000X0.600000X-0.600000X0.600000X0.600000X-0.600000X0.600000X0*%
%ADD23RoundRect,0.800000X-0.800000X-0.000010X0.800000X-0.000010X0.800000X0.000010X-0.800000X0.000010X0*%
%ADD24FreePoly1,0.000000*%
%ADD25FreePoly2,0.000000*%
%ADD26FreePoly3,0.000000*%
%ADD27RoundRect,0.150000X-0.875000X-0.150000X0.875000X-0.150000X0.875000X0.150000X-0.875000X0.150000X0*%
%ADD28C,1.500000*%
%ADD29R,1.500000X1.000000*%
%ADD30R,2.200000X1.200000*%
%ADD31RoundRect,0.250000X0.550000X0.550000X-0.550000X0.550000X-0.550000X-0.550000X0.550000X-0.550000X0*%
%ADD32FreePoly4,270.000000*%
%ADD33FreePoly5,270.000000*%
%ADD34C,4.300000*%
%ADD35RoundRect,0.250000X0.650000X-0.412500X0.650000X0.412500X-0.650000X0.412500X-0.650000X-0.412500X0*%
%ADD36C,1.540000*%
%ADD37C,1.950000*%
%ADD38R,1.240000X1.120000*%
%ADD39RoundRect,0.250000X0.625000X-0.350000X0.625000X0.350000X-0.625000X0.350000X-0.625000X-0.350000X0*%
%ADD40O,1.750000X1.200000*%
%ADD41RoundRect,0.250000X-0.550000X0.550000X-0.550000X-0.550000X0.550000X-0.550000X0.550000X0.550000X0*%
%ADD42RoundRect,0.250000X-0.412500X-0.650000X0.412500X-0.650000X0.412500X0.650000X-0.412500X0.650000X0*%
%ADD43R,1.422400X1.422400*%
%ADD44C,1.422400*%
%ADD45R,1.650000X1.650000*%
%ADD46C,1.650000*%
%ADD47R,1.475000X0.300000*%
G04 APERTURE END LIST*
%TO.C,JP1*%
G36*
X134375000Y-55700000D02*
G01*
X135875000Y-55700000D01*
X135875000Y-56000000D01*
X134375000Y-56000000D01*
X134375000Y-55700000D01*
G37*
%TD*%
D10*
%TO.C,R23*%
X238975000Y-71350000D03*
X235875000Y-71350000D03*
%TD*%
D11*
%TO.C,R22*%
X171083853Y-111481057D03*
X174183853Y-111481057D03*
%TD*%
D12*
%TO.C,C18*%
X225337500Y-81125000D03*
X222212500Y-81125000D03*
%TD*%
D13*
%TO.C,RN1*%
X230975000Y-101825000D03*
D14*
X230975000Y-104365000D03*
X230975000Y-106905000D03*
X230975000Y-109445000D03*
X230975000Y-111985000D03*
X230975000Y-114525000D03*
X230975000Y-117065000D03*
X230975000Y-119605000D03*
X230975000Y-122145000D03*
%TD*%
D11*
%TO.C,R8*%
X86750000Y-90190000D03*
X89850000Y-90190000D03*
%TD*%
%TO.C,R10*%
X86750000Y-82675000D03*
X89850000Y-82675000D03*
%TD*%
D15*
%TO.C,C9*%
X128250000Y-56617500D03*
X128250000Y-59742500D03*
%TD*%
D16*
%TO.C,J1*%
X247887890Y-123635000D03*
D17*
X255507890Y-128715000D03*
X255507890Y-138875000D03*
D16*
X247887890Y-143955000D03*
D18*
X245347890Y-141415000D03*
X245347890Y-136335000D03*
X245347890Y-131255000D03*
X245347890Y-126175000D03*
%TD*%
D19*
%TO.C,A1*%
X111210000Y-54761884D03*
D20*
X111510000Y-57791884D03*
X116360000Y-57791884D03*
D19*
X116660000Y-54761884D03*
D21*
X104245000Y-54631884D03*
D22*
X105045000Y-54631884D03*
D23*
X104245000Y-57171884D03*
D14*
X105045000Y-57171884D03*
D24*
X104245000Y-59711884D03*
D25*
X105045000Y-59711884D03*
D23*
X104245000Y-62251884D03*
D14*
X105045000Y-62251884D03*
D23*
X104245000Y-64791884D03*
D14*
X105045000Y-64791884D03*
D23*
X104245000Y-67331884D03*
D14*
X105045000Y-67331884D03*
D23*
X104245000Y-69871884D03*
D14*
X105045000Y-69871884D03*
D24*
X104245000Y-72411884D03*
D25*
X105045000Y-72411884D03*
D23*
X104245000Y-74951884D03*
D14*
X105045000Y-74951884D03*
D23*
X104245000Y-77491884D03*
D14*
X105045000Y-77491884D03*
D23*
X104245000Y-80031884D03*
D14*
X105045000Y-80031884D03*
D23*
X104245000Y-82571884D03*
D14*
X105045000Y-82571884D03*
D24*
X104245000Y-85111884D03*
D25*
X105045000Y-85111884D03*
D23*
X104245000Y-87651884D03*
D14*
X105045000Y-87651884D03*
D23*
X104245000Y-90191884D03*
D14*
X105045000Y-90191884D03*
D23*
X104245000Y-92731884D03*
D14*
X105045000Y-92731884D03*
D23*
X104245000Y-95271884D03*
D14*
X105045000Y-95271884D03*
D24*
X104245000Y-97811884D03*
D25*
X105045000Y-97811884D03*
D23*
X104245000Y-100351884D03*
D14*
X105045000Y-100351884D03*
D23*
X104245000Y-102891884D03*
D14*
X105045000Y-102891884D03*
X122825000Y-102891884D03*
D23*
X123625000Y-102891884D03*
D14*
X122825000Y-100351884D03*
D23*
X123625000Y-100351884D03*
D26*
X122825000Y-97811884D03*
D21*
X123625000Y-97811884D03*
D14*
X122825000Y-95271884D03*
D23*
X123625000Y-95271884D03*
D14*
X122825000Y-92731884D03*
D23*
X123625000Y-92731884D03*
D14*
X122825000Y-90191884D03*
D23*
X123625000Y-90191884D03*
D14*
X122825000Y-87651884D03*
D23*
X123625000Y-87651884D03*
D26*
X122825000Y-85111884D03*
D21*
X123625000Y-85111884D03*
D14*
X122825000Y-82571884D03*
D23*
X123625000Y-82571884D03*
D14*
X122825000Y-80031884D03*
D23*
X123625000Y-80031884D03*
D14*
X122825000Y-77491884D03*
D23*
X123625000Y-77491884D03*
D14*
X122825000Y-74951884D03*
D23*
X123625000Y-74951884D03*
D26*
X122825000Y-72411884D03*
D21*
X123625000Y-72411884D03*
D14*
X122825000Y-69871884D03*
D23*
X123625000Y-69871884D03*
D14*
X122825000Y-67331884D03*
D23*
X123625000Y-67331884D03*
D14*
X122825000Y-64791884D03*
D23*
X123625000Y-64791884D03*
D14*
X122825000Y-62251884D03*
D23*
X123625000Y-62251884D03*
D26*
X122825000Y-59711884D03*
D21*
X123625000Y-59711884D03*
D14*
X122825000Y-57171884D03*
D23*
X123625000Y-57171884D03*
D14*
X122825000Y-54631884D03*
D23*
X123625000Y-54631884D03*
%TD*%
D11*
%TO.C,R9*%
X86750000Y-86425000D03*
X89850000Y-86425000D03*
%TD*%
%TO.C,R11*%
X86750000Y-78925000D03*
X89850000Y-78925000D03*
%TD*%
D15*
%TO.C,C3*%
X151262500Y-99787500D03*
X151262500Y-102912500D03*
%TD*%
%TO.C,C5*%
X193150000Y-85362500D03*
X193150000Y-88487500D03*
%TD*%
D11*
%TO.C,R13*%
X235900000Y-92305000D03*
X239000000Y-92305000D03*
%TD*%
D10*
%TO.C,R1*%
X89819737Y-68525000D03*
X86719737Y-68525000D03*
%TD*%
D12*
%TO.C,C17*%
X225337500Y-101150000D03*
X222212500Y-101150000D03*
%TD*%
D27*
%TO.C,U6*%
X216050000Y-45225000D03*
X216050000Y-46495000D03*
X216050000Y-47765000D03*
X216050000Y-49035000D03*
X216050000Y-50305000D03*
X216050000Y-51575000D03*
X216050000Y-52845000D03*
X216050000Y-54115000D03*
X216050000Y-55385000D03*
X216050000Y-56655000D03*
X225350000Y-56655000D03*
X225350000Y-55385000D03*
X225350000Y-54115000D03*
X225350000Y-52845000D03*
X225350000Y-51575000D03*
X225350000Y-50305000D03*
X225350000Y-49035000D03*
X225350000Y-47765000D03*
X225350000Y-46495000D03*
X225350000Y-45225000D03*
%TD*%
D11*
%TO.C,R16*%
X235896648Y-56230000D03*
X238996648Y-56230000D03*
%TD*%
D28*
%TO.C,SD1*%
X46385633Y-76907488D03*
X46385633Y-101107488D03*
D29*
X70685633Y-95882488D03*
X70685633Y-93382488D03*
X70685633Y-90082488D03*
X70685633Y-88382488D03*
X70685633Y-85882488D03*
X70685633Y-83382488D03*
X70685633Y-80957488D03*
X70685633Y-79257488D03*
X70685633Y-98382488D03*
X70685633Y-91732488D03*
D30*
X48485633Y-75407488D03*
X49685633Y-103407488D03*
D29*
X70685633Y-75907488D03*
%TD*%
D11*
%TO.C,R4*%
X86775000Y-105425000D03*
X89875000Y-105425000D03*
%TD*%
D31*
%TO.C,C15*%
X139157862Y-97475000D03*
D14*
X136657862Y-97475000D03*
%TD*%
D27*
%TO.C,U5*%
X216050000Y-65552500D03*
X216050000Y-66822500D03*
X216050000Y-68092500D03*
X216050000Y-69362500D03*
X216050000Y-70632500D03*
X216050000Y-71902500D03*
X216050000Y-73172500D03*
X216050000Y-74442500D03*
X216050000Y-75712500D03*
X216050000Y-76982500D03*
X225350000Y-76982500D03*
X225350000Y-75712500D03*
X225350000Y-74442500D03*
X225350000Y-73172500D03*
X225350000Y-71902500D03*
X225350000Y-70632500D03*
X225350000Y-69362500D03*
X225350000Y-68092500D03*
X225350000Y-66822500D03*
X225350000Y-65552500D03*
%TD*%
D32*
%TO.C,JP1*%
X135125000Y-55200000D03*
D33*
X135125000Y-56500000D03*
%TD*%
D34*
%TO.C,REF\u002A\u002A*%
X205000000Y-42000000D03*
%TD*%
D11*
%TO.C,R12*%
X235900000Y-89825000D03*
X239000000Y-89825000D03*
%TD*%
%TO.C,R15*%
X235898816Y-60010000D03*
X238998816Y-60010000D03*
%TD*%
D15*
%TO.C,C12*%
X193150000Y-95450000D03*
X193150000Y-98575000D03*
%TD*%
%TO.C,C10*%
X74225000Y-88417500D03*
X74225000Y-91542500D03*
%TD*%
%TO.C,C8*%
X151000000Y-87592500D03*
X151000000Y-90717500D03*
%TD*%
D12*
%TO.C,C2*%
X174187500Y-107775000D03*
X171062500Y-107775000D03*
%TD*%
D11*
%TO.C,R21*%
X235900000Y-84925000D03*
X239000000Y-84925000D03*
%TD*%
D35*
%TO.C,C1*%
X144677750Y-83337500D03*
X144677750Y-80212500D03*
%TD*%
D13*
%TO.C,Y1*%
X200760000Y-76940000D03*
D14*
X200760000Y-92180000D03*
X208380000Y-92180000D03*
X208380000Y-76940000D03*
%TD*%
D11*
%TO.C,R2*%
X86775000Y-109100000D03*
X89875000Y-109100000D03*
%TD*%
D36*
%TO.C,SW1*%
X46032500Y-65959384D03*
X46032500Y-70459384D03*
D37*
X48522500Y-71714384D03*
X48522500Y-64704384D03*
%TD*%
D38*
%TO.C,D1*%
X141575000Y-58025000D03*
X138575000Y-58025000D03*
%TD*%
D34*
%TO.C,REF\u002A\u002A*%
X44280000Y-113400000D03*
%TD*%
D27*
%TO.C,U4*%
X216050000Y-84685000D03*
X216050000Y-85955000D03*
X216050000Y-87225000D03*
X216050000Y-88495000D03*
X216050000Y-89765000D03*
X216050000Y-91035000D03*
X216050000Y-92305000D03*
X216050000Y-93575000D03*
X216050000Y-94845000D03*
X216050000Y-96115000D03*
X225350000Y-96115000D03*
X225350000Y-94845000D03*
X225350000Y-93575000D03*
X225350000Y-92305000D03*
X225350000Y-91035000D03*
X225350000Y-89765000D03*
X225350000Y-88495000D03*
X225350000Y-87225000D03*
X225350000Y-85955000D03*
X225350000Y-84685000D03*
%TD*%
D35*
%TO.C,C6*%
X193100000Y-73582500D03*
X193100000Y-70457500D03*
%TD*%
D27*
%TO.C,U3*%
X216050000Y-104985000D03*
X216050000Y-106255000D03*
X216050000Y-107525000D03*
X216050000Y-108795000D03*
X216050000Y-110065000D03*
X216050000Y-111335000D03*
X216050000Y-112605000D03*
X216050000Y-113875000D03*
X216050000Y-115145000D03*
X216050000Y-116415000D03*
X225350000Y-116415000D03*
X225350000Y-115145000D03*
X225350000Y-113875000D03*
X225350000Y-112605000D03*
X225350000Y-111335000D03*
X225350000Y-110065000D03*
X225350000Y-108795000D03*
X225350000Y-107525000D03*
X225350000Y-106255000D03*
X225350000Y-104985000D03*
%TD*%
D10*
%TO.C,R3*%
X89819737Y-72655000D03*
X86719737Y-72655000D03*
%TD*%
D39*
%TO.C,J3*%
X251050000Y-50000000D03*
D40*
X251050000Y-48000000D03*
X251050000Y-46000000D03*
%TD*%
D41*
%TO.C,C14*%
X233360000Y-129724888D03*
D14*
X233360000Y-132224888D03*
%TD*%
D10*
%TO.C,R14*%
X239000000Y-63975000D03*
X235900000Y-63975000D03*
%TD*%
D11*
%TO.C,R5*%
X86750000Y-101675000D03*
X89850000Y-101675000D03*
%TD*%
D42*
%TO.C,C7*%
X166567500Y-66200000D03*
X169692500Y-66200000D03*
%TD*%
D12*
%TO.C,C11*%
X195662500Y-80090000D03*
X192537500Y-80090000D03*
%TD*%
D34*
%TO.C,REF\u002A\u002A*%
X44450000Y-55974113D03*
%TD*%
D43*
%TO.C,U1*%
X186890000Y-86575000D03*
D44*
X184350000Y-86575000D03*
X186890000Y-84035000D03*
X184350000Y-84035000D03*
X186890000Y-81495000D03*
X184350000Y-81495000D03*
X186890000Y-78955000D03*
X184350000Y-78955000D03*
X186890000Y-76415000D03*
X184350000Y-76415000D03*
X186890000Y-73875000D03*
X184350000Y-71335000D03*
X184350000Y-73875000D03*
X181810000Y-71335000D03*
X181810000Y-73875000D03*
X179270000Y-71335000D03*
X179270000Y-73875000D03*
X176730000Y-71335000D03*
X176730000Y-73875000D03*
X174190000Y-71335000D03*
X174190000Y-73875000D03*
X171650000Y-71335000D03*
X171650000Y-73875000D03*
X169110000Y-71335000D03*
X169110000Y-73875000D03*
X166570000Y-71335000D03*
X166570000Y-73875000D03*
X164030000Y-71335000D03*
X164030000Y-73875000D03*
X161490000Y-71335000D03*
X161490000Y-73875000D03*
X158950000Y-71335000D03*
X156410000Y-73875000D03*
X158950000Y-73875000D03*
X156410000Y-76415000D03*
X158950000Y-76415000D03*
X156410000Y-78955000D03*
X158950000Y-78955000D03*
X156410000Y-81495000D03*
X158950000Y-81495000D03*
X156410000Y-84035000D03*
X158950000Y-84035000D03*
X156410000Y-86575000D03*
X158950000Y-86575000D03*
X156410000Y-89115000D03*
X158950000Y-89115000D03*
X156410000Y-91655000D03*
X158950000Y-91655000D03*
X156410000Y-94195000D03*
X158950000Y-94195000D03*
X156410000Y-96735000D03*
X158950000Y-96735000D03*
X156410000Y-99275000D03*
X158950000Y-101815000D03*
X158950000Y-99275000D03*
X161490000Y-101815000D03*
X161490000Y-99275000D03*
X164030000Y-101815000D03*
X164030000Y-99275000D03*
X166570000Y-101815000D03*
X166570000Y-99275000D03*
X169110000Y-101815000D03*
X169110000Y-99275000D03*
X171650000Y-101815000D03*
X171650000Y-99275000D03*
X174190000Y-101815000D03*
X174190000Y-99275000D03*
X176730000Y-101815000D03*
X176730000Y-99275000D03*
X179270000Y-101815000D03*
X179270000Y-99275000D03*
X181810000Y-101815000D03*
X181810000Y-99275000D03*
X184350000Y-101815000D03*
X186890000Y-99275000D03*
X184350000Y-99275000D03*
X186890000Y-96735000D03*
X184350000Y-96735000D03*
X186890000Y-94195000D03*
X184350000Y-94195000D03*
X186890000Y-91655000D03*
X184350000Y-91655000D03*
X186890000Y-89115000D03*
X184350000Y-89115000D03*
%TD*%
D11*
%TO.C,R19*%
X235900000Y-78625000D03*
X239000000Y-78625000D03*
%TD*%
D12*
%TO.C,C19*%
X225362500Y-62025000D03*
X222237500Y-62025000D03*
%TD*%
D34*
%TO.C,REF\u002A\u002A*%
X203025000Y-142300000D03*
%TD*%
D10*
%TO.C,R18*%
X238997021Y-74975000D03*
X235897021Y-74975000D03*
%TD*%
D15*
%TO.C,C4*%
X128300000Y-64812500D03*
X128300000Y-67937500D03*
%TD*%
D10*
%TO.C,R20*%
X239000000Y-82575000D03*
X235900000Y-82575000D03*
%TD*%
D41*
%TO.C,C16*%
X78850000Y-88414775D03*
D14*
X78850000Y-90914775D03*
%TD*%
D35*
%TO.C,C13*%
X151467500Y-80225000D03*
X151467500Y-77100000D03*
%TD*%
D13*
%TO.C,RN2*%
X230995281Y-85930000D03*
D14*
X230995281Y-88470000D03*
X230995281Y-91010000D03*
X230995281Y-93550000D03*
X230995281Y-96090000D03*
%TD*%
D11*
%TO.C,R6*%
X86750000Y-97925000D03*
X89850000Y-97925000D03*
%TD*%
D45*
%TO.C,J2*%
X243872500Y-63990000D03*
D46*
X246412500Y-63990000D03*
X243872500Y-66530000D03*
X246412500Y-66530000D03*
X243872500Y-69070000D03*
X246412500Y-69070000D03*
X243872500Y-71610000D03*
X246412500Y-71610000D03*
X243872500Y-74150000D03*
X246412500Y-74150000D03*
X243872500Y-76690000D03*
X246412500Y-76690000D03*
X243872500Y-79230000D03*
X246412500Y-79230000D03*
X243872500Y-81770000D03*
X246412500Y-81770000D03*
X243872500Y-84310000D03*
X246412500Y-84310000D03*
X243872500Y-86850000D03*
X246412500Y-86850000D03*
X243872500Y-89390000D03*
X246412500Y-89390000D03*
X243872500Y-91930000D03*
X246412500Y-91930000D03*
X243872500Y-94470000D03*
X246412500Y-94470000D03*
X243872500Y-97010000D03*
X246412500Y-97010000D03*
X243872500Y-99550000D03*
X246412500Y-99550000D03*
X243872500Y-102090000D03*
X246412500Y-102090000D03*
X243872500Y-104630000D03*
X246412500Y-104630000D03*
X243872500Y-107170000D03*
X246412500Y-107170000D03*
X243872500Y-109710000D03*
X246412500Y-109710000D03*
X243872500Y-112250000D03*
X246412500Y-112250000D03*
%TD*%
D38*
%TO.C,D2*%
X141575000Y-60125000D03*
X138575000Y-60125000D03*
%TD*%
D47*
%TO.C,U2*%
X141866000Y-93200000D03*
X141866000Y-92700000D03*
X141866000Y-92200000D03*
X141866000Y-91700000D03*
X141866000Y-91200000D03*
X141866000Y-90700000D03*
X141866000Y-90200000D03*
X141866000Y-89700000D03*
X141866000Y-89200000D03*
X141866000Y-88700000D03*
X141866000Y-88200000D03*
X141866000Y-87700000D03*
X141866000Y-87200000D03*
X141866000Y-86700000D03*
X141866000Y-86200000D03*
X141866000Y-85700000D03*
X141866000Y-85200000D03*
X141866000Y-84700000D03*
X141866000Y-84200000D03*
X141866000Y-83700000D03*
X141866000Y-83200000D03*
X141866000Y-82700000D03*
X141866000Y-82200000D03*
X141866000Y-81700000D03*
X141866000Y-81200000D03*
X141866000Y-80700000D03*
X141866000Y-80200000D03*
X141866000Y-79700000D03*
X134290000Y-79700000D03*
X134290000Y-80200000D03*
X134290000Y-80700000D03*
X134290000Y-81200000D03*
X134290000Y-81700000D03*
X134290000Y-82200000D03*
X134290000Y-82700000D03*
X134290000Y-83200000D03*
X134290000Y-83700000D03*
X134290000Y-84200000D03*
X134290000Y-84700000D03*
X134290000Y-85200000D03*
X134290000Y-85700000D03*
X134290000Y-86200000D03*
X134290000Y-86700000D03*
X134290000Y-87200000D03*
X134290000Y-87700000D03*
X134290000Y-88200000D03*
X134290000Y-88700000D03*
X134290000Y-89200000D03*
X134290000Y-89700000D03*
X134290000Y-90200000D03*
X134290000Y-90700000D03*
X134290000Y-91200000D03*
X134290000Y-91700000D03*
X134290000Y-92200000D03*
X134290000Y-92700000D03*
X134290000Y-93200000D03*
%TD*%
D11*
%TO.C,R17*%
X235900000Y-67620000D03*
X239000000Y-67620000D03*
%TD*%
%TO.C,R7*%
X86750000Y-93940000D03*
X89850000Y-93940000D03*
%TD*%
D12*
%TO.C,C20*%
X225362500Y-41630000D03*
X222237500Y-41630000D03*
%TD*%
M02*
